<?xml version="1.0" standalone="no"?>
<!DOCTYPE svg PUBLIC "-//W3C//DTD SVG 20010904//EN"
 "http://www.w3.org/TR/2001/REC-SVG-20010904/DTD/svg10.dtd">
<svg version="1.0" xmlns="http://www.w3.org/2000/svg"
 width="519.000000pt" height="519.000000pt" viewBox="0 0 519.000000 519.000000"
 preserveAspectRatio="xMidYMid meet">
<metadata>
Created by potrace 1.14, written by Peter Selinger 2001-2017
</metadata>
<g transform="translate(0.000000,519.000000) scale(0.100000,-0.100000)"
fill="#000000" stroke="none">
<path d="M1184 4615 c-266 -58 -491 -261 -588 -533 l-31 -87 -3 -1373 c-2
-1336 -2 -1376 17 -1456 73 -305 310 -538 613 -600 68 -14 230 -16 1408 -16
1174 0 1340 2 1408 16 274 56 497 255 596 532 l31 87 3 1365 c2 962 0 1384 -8
1429 -44 256 -242 497 -490 598 -136 54 -87 53 -1545 52 -1082 0 -1362 -3
-1411 -14z m2696 -315 c11 -6 30 -25 43 -43 33 -45 140 -360 140 -412 0 -56
-29 -105 -79 -131 -21 -12 -515 -185 -1096 -385 l-1057 -364 1142 -5 c1277 -6
1180 1 1229 -77 l23 -38 0 -790 0 -790 -23 -57 c-29 -72 -106 -145 -183 -173
-53 -20 -79 -20 -1414 -20 -1562 0 -1424 -9 -1525 94 -101 103 -95 36 -97 965
l-2 810 -51 142 c-31 88 -50 159 -50 185 0 50 26 99 65 125 14 9 656 234 1428
500 1481 511 1441 499 1507 464z"/>
<path d="M3188 4003 c-104 -36 -188 -69 -188 -72 0 -6 253 -317 280 -345 13
-13 411 126 405 141 -11 32 -279 343 -294 342 -9 0 -100 -30 -203 -66z"/>
<path d="M2423 3742 c-106 -37 -193 -69 -193 -72 0 -13 282 -350 294 -350 6 0
101 31 209 68 l197 68 -146 177 c-81 97 -152 177 -158 176 -6 0 -98 -31 -203
-67z"/>
<path d="M1656 3475 c-104 -36 -191 -66 -193 -69 -4 -4 284 -356 292 -356 10
0 391 133 397 138 10 10 -271 347 -291 349 -9 1 -101 -27 -205 -62z"/>
<path d="M1339 3051 c-69 -22 -109 -76 -109 -148 0 -89 85 -162 170 -148 110
19 166 154 99 239 -36 46 -110 72 -160 57z"/>
<path d="M1690 2648 c-41 -110 -76 -207 -78 -215 -3 -10 36 -13 211 -13 195 0
215 2 222 18 8 21 87 231 126 335 l28 77 -217 0 -217 0 -75 -202z"/>
<path d="M2500 2648 c-41 -110 -76 -207 -78 -215 -3 -10 36 -13 211 -13 195 0
215 2 222 18 8 21 87 231 126 335 l28 77 -217 0 -217 0 -75 -202z"/>
<path d="M3366 2783 c-14 -38 -50 -133 -80 -213 l-54 -145 211 -3 c116 -1 214
1 218 5 7 7 159 407 159 418 0 3 -96 5 -214 5 l-214 0 -26 -67z"/>
<path d="M1200 1815 c0 -542 1 -551 56 -573 22 -9 352 -12 1366 -10 l1337 3
23 23 23 23 3 514 3 515 -1406 0 -1405 0 0 -495z m410 435 c0 -27 3 -30 30
-30 25 0 30 -4 30 -25 0 -20 5 -25 25 -25 20 0 25 5 25 25 0 20 5 25 24 25 19
0 25 6 28 28 3 26 5 27 58 27 l55 0 0 -195 0 -195 -55 0 -55 0 -3 108 c-3 106
-3 107 -27 107 -24 0 -25 -3 -25 -56 0 -54 0 -55 -27 -52 -26 3 -28 7 -31 56
-3 48 -5 52 -28 52 l-24 0 0 -110 0 -110 -55 0 -55 0 0 200 0 200 55 0 c54 0
55 0 55 -30z m1485 -5 c0 -30 -1 -30 -55 -30 -45 0 -55 3 -58 18 -8 39 5 48
60 45 52 -3 53 -4 53 -33z m-825 -105 c0 -27 3 -30 30 -30 l30 0 0 -85 0 -85
-30 0 c-27 0 -30 -3 -30 -30 l0 -31 -137 3 -138 3 -3 28 c-3 21 -9 27 -28 27
-24 0 -24 2 -24 85 0 84 0 85 25 85 20 0 25 5 25 23 0 13 3 27 7 30 3 4 66 7
140 7 l133 0 0 -30z m278 -57 l3 -83 49 0 49 0 3 83 3 82 55 0 55 0 0 -85 0
-85 -27 -3 c-22 -3 -28 -9 -28 -28 0 -19 -5 -24 -24 -24 -19 0 -25 -6 -28 -27
-3 -27 -5 -28 -58 -28 -53 0 -55 1 -58 28 -3 21 -9 27 -28 27 -19 0 -24 5 -24
24 0 19 -6 25 -27 28 -27 3 -28 5 -31 77 -4 101 -3 103 60 99 l53 -3 3 -82z
m550 -25 l3 -107 52 -3 c50 -3 52 -4 52 -33 l0 -30 -165 0 -165 0 0 30 c0 29
2 30 53 33 l52 3 0 75 c0 72 -1 74 -25 74 -22 0 -25 4 -25 35 l0 36 83 -3 82
-3 3 -107z m492 82 c0 -27 3 -30 30 -30 l31 0 -3 -57 -3 -58 -137 -3 c-130 -2
-138 -4 -138 -22 0 -19 7 -20 110 -20 l110 0 0 -35 0 -36 -137 3 -138 3 -3 28
c-3 21 -9 27 -28 27 -24 0 -24 2 -24 85 0 84 0 85 25 85 20 0 25 5 25 23 0 13
3 27 7 30 3 4 66 7 140 7 l133 0 0 -30z m-1372 -392 c3 -22 9 -28 28 -28 19 0
24 -5 24 -24 0 -19 6 -25 28 -28 l27 -3 0 -85 0 -85 -27 -3 c-22 -3 -28 -9
-28 -28 0 -19 -5 -24 -24 -24 -19 0 -25 -6 -28 -27 l-3 -28 -137 -3 -138 -3 0
201 0 201 138 -3 137 -3 3 -27z m272 -23 l0 -55 110 0 110 0 0 -30 c0 -27 3
-30 30 -30 l30 0 0 -85 0 -85 -30 0 c-27 0 -30 -3 -30 -30 l0 -31 -137 3 -138
3 -3 28 c-3 21 -9 27 -28 27 l-24 0 0 170 0 170 55 0 55 0 0 -55z"/>
<path d="M2050 2025 l0 -75 80 0 80 0 0 75 0 75 -80 0 -80 0 0 -75z"/>
<path d="M3370 2080 c0 -18 7 -20 80 -20 73 0 80 2 80 20 0 18 -7 20 -80 20
-73 0 -80 -2 -80 -20z"/>
<path d="M2050 1580 l0 -130 55 0 c52 0 55 1 55 25 0 20 5 25 25 25 25 0 25 1
25 80 0 79 0 80 -25 80 -20 0 -25 5 -25 25 0 24 -3 25 -55 25 l-55 0 0 -130z"/>
<path d="M2490 1525 l0 -75 80 0 80 0 0 75 0 75 -80 0 -80 0 0 -75z"/>
</g>
</svg>
